<svg xmlns="http://www.w3.org/2000/svg" xmlns:xlink="http://www.w3.org/1999/xlink" id="visual"
    version="1.1" viewBox="0 474.4 900 126.6">
    <path id="wave1"
        d="M0 530L10 525.5C20 521 40 512 60 513C80 514 100 525 120 528.2C140 531.3 160 526.7 180 527.3C200 528 220 534 240 522.3C260 510.7 280 481.3 300 483.2C320 485 340 518 360 526.3C380 534.7 400 518.3 420 516C440 513.7 460 525.3 480 533.2C500 541 520 545 540 531.7C560 518.3 580 487.7 600 478C620 468.3 640 479.7 660 494.3C680 509 700 527 720 526.3C740 525.7 760 506.3 780 503C800 499.7 820 512.3 840 518C860 523.7 880 522.3 890 521.7L900 521L900 601L890 601C880 601 860 601 840 601C820 601 800 601 780 601C760 601 740 601 720 601C700 601 680 601 660 601C640 601 620 601 600 601C580 601 560 601 540 601C520 601 500 601 480 601C460 601 440 601 420 601C400 601 380 601 360 601C340 601 320 601 300 601C280 601 260 601 240 601C220 601 200 601 180 601C160 601 140 601 120 601C100 601 80 601 60 601C40 601 20 601 10 601L0 601Z"
        fill="#66c3ff" />
</svg>