<svg xmlns="http://www.w3.org/2000/svg" xmlns:xlink="http://www.w3.org/1999/xlink" id="visual"
    version="1.1" viewBox="0 526 900 75">
    <path id="wave4"
        d="M0 548L10 548.3C20 548.7 40 549.3 60 549.2C80 549 100 548 120 548.5C140 549 160 551 180 550.3C200 549.7 220 546.3 240 549.5C260 552.7 280 562.3 300 567.7C320 573 340 574 360 568.3C380 562.7 400 550.3 420 545C440 539.7 460 541.3 480 542.7C500 544 520 545 540 546.2C560 547.3 580 548.7 600 550.2C620 551.7 640 553.3 660 551.8C680 550.3 700 545.7 720 541.2C740 536.7 760 532.3 780 536.7C800 541 820 554 840 553.7C860 553.3 880 539.7 890 532.8L900 526L900 601L890 601C880 601 860 601 840 601C820 601 800 601 780 601C760 601 740 601 720 601C700 601 680 601 660 601C640 601 620 601 600 601C580 601 560 601 540 601C520 601 500 601 480 601C460 601 440 601 420 601C400 601 380 601 360 601C340 601 320 601 300 601C280 601 260 601 240 601C220 601 200 601 180 601C160 601 140 601 120 601C100 601 80 601 60 601C40 601 20 601 10 601L0 601Z"
        fill="#37719a" />
</svg>