<svg xmlns="http://www.w3.org/2000/svg" xmlns:xlink="http://www.w3.org/1999/xlink" id="visual"
    version="1.1" viewBox="0 0 900 109.82">
    <path id="wave7"
        d="M0 90L10 89.8C20 89.7 40 89.3 60 89.3C80 89.3 100 89.7 120 90C140 90.3 160 90.7 180 91.7C200 92.7 220 94.3 240 92.5C260 90.7 280 85.3 300 88.3C320 91.3 340 102.7 360 106.5C380 110.3 400 106.7 420 100.8C440 95 460 87 480 82.7C500 78.3 520 77.7 540 83.3C560 89 580 101 600 102.8C620 104.7 640 96.3 660 97.5C680 98.7 700 109.3 720 109.8C740 110.3 760 100.7 780 96.2C800 91.7 820 92.3 840 94.3C860 96.3 880 99.7 890 101.3L900 103L900 0L890 0C880 0 860 0 840 0C820 0 800 0 780 0C760 0 740 0 720 0C700 0 680 0 660 0C640 0 620 0 600 0C580 0 560 0 540 0C520 0 500 0 480 0C460 0 440 0 420 0C400 0 380 0 360 0C340 0 320 0 300 0C280 0 260 0 240 0C220 0 200 0 180 0C160 0 140 0 120 0C100 0 80 0 60 0C40 0 20 0 10 0L0 0Z"
        fill="#57a7dd" />
</svg>