<svg xmlns="http://www.w3.org/2000/svg" xmlns:xlink="http://www.w3.org/1999/xlink" id="visual"
    version="1.1" viewBox="0 0 900 92.84">
    <path id="wave8"
        d="M0 80L10 77.5C20 75 40 70 60 65.7C80 61.3 100 57.7 120 61.7C140 65.7 160 77.3 180 79.5C200 81.7 220 74.3 240 69C260 63.7 280 60.3 300 58.3C320 56.3 340 55.7 360 56C380 56.3 400 57.7 420 64.3C440 71 460 83 480 88.7C500 94.3 520 93.7 540 90C560 86.3 580 79.7 600 79.7C620 79.7 640 86.3 660 85.5C680 84.7 700 76.3 720 75C740 73.7 760 79.3 780 80.8C800 82.3 820 79.7 840 74.2C860 68.7 880 60.3 890 56.2L900 52L900 0L890 0C880 0 860 0 840 0C820 0 800 0 780 0C760 0 740 0 720 0C700 0 680 0 660 0C640 0 620 0 600 0C580 0 560 0 540 0C520 0 500 0 480 0C460 0 440 0 420 0C400 0 380 0 360 0C340 0 320 0 300 0C280 0 260 0 240 0C220 0 200 0 180 0C160 0 140 0 120 0C100 0 80 0 60 0C40 0 20 0 10 0L0 0Z"
        fill="#478bbb" />
</svg>