<svg xmlns="http://www.w3.org/2000/svg" xmlns:xlink="http://www.w3.org/1999/xlink" id="visual"
    version="1.1" viewBox="0 519.3 900 81.7">
    <path id="wave3"
        d="M0 536L10 531.3C20 526.7 40 517.3 60 519.7C80 522 100 536 120 544.3C140 552.7 160 555.3 180 553.5C200 551.7 220 545.3 240 545.2C260 545 280 551 300 552C320 553 340 549 360 545.8C380 542.7 400 540.3 420 543.2C440 546 460 554 480 557C500 560 520 558 540 552.5C560 547 580 538 600 533.8C620 529.7 640 530.3 660 533.2C680 536 700 541 720 546.2C740 551.3 760 556.7 780 548.7C800 540.7 820 519.3 840 519.3C860 519.3 880 540.7 890 551.3L900 562L900 601L890 601C880 601 860 601 840 601C820 601 800 601 780 601C760 601 740 601 720 601C700 601 680 601 660 601C640 601 620 601 600 601C580 601 560 601 540 601C520 601 500 601 480 601C460 601 440 601 420 601C400 601 380 601 360 601C340 601 320 601 300 601C280 601 260 601 240 601C220 601 200 601 180 601C160 601 140 601 120 601C100 601 80 601 60 601C40 601 20 601 10 601L0 601Z"
        fill="#478bbb" />
</svg>