<svg xmlns="http://www.w3.org/2000/svg" xmlns:xlink="http://www.w3.org/1999/xlink" id="visual"
    version="1.1" viewBox="0 548 900 53">
    <path id="wave5"
        d="M0 548L10 554.8C20 561.7 40 575.3 60 582C80 588.7 100 588.3 120 584.2C140 580 160 572 180 570.7C200 569.3 220 574.7 240 577.8C260 581 280 582 300 581.8C320 581.7 340 580.3 360 580C380 579.7 400 580.3 420 575.5C440 570.7 460 560.3 480 555.5C500 550.7 520 551.3 540 553C560 554.7 580 557.3 600 563.7C620 570 640 580 660 580.7C680 581.3 700 572.7 720 566.5C740 560.3 760 556.7 780 557C800 557.3 820 561.7 840 564.3C860 567 880 568 890 568.5L900 569L900 601L890 601C880 601 860 601 840 601C820 601 800 601 780 601C760 601 740 601 720 601C700 601 680 601 660 601C640 601 620 601 600 601C580 601 560 601 540 601C520 601 500 601 480 601C460 601 440 601 420 601C400 601 380 601 360 601C340 601 320 601 300 601C280 601 260 601 240 601C220 601 200 601 180 601C160 601 140 601 120 601C100 601 80 601 60 601C40 601 20 601 10 601L0 601Z"
        fill="#28587b" />
</svg>