<svg xmlns="http://www.w3.org/2000/svg" xmlns:xlink="http://www.w3.org/1999/xlink" id="visual"
    version="1.1" viewBox="0 0 900 42.08">
    <path id="wave10"
        d="M0 22L10 23.7C20 25.3 40 28.7 60 28.5C80 28.3 100 24.7 120 24.2C140 23.7 160 26.3 180 30C200 33.7 220 38.3 240 40.3C260 42.3 280 41.7 300 41.7C320 41.7 340 42.3 360 42C380 41.7 400 40.3 420 35.8C440 31.3 460 23.7 480 21.7C500 19.7 520 23.3 540 23.3C560 23.3 580 19.7 600 19.5C620 19.3 640 22.7 660 25.8C680 29 700 32 720 34.5C740 37 760 39 780 36C800 33 820 25 840 22C860 19 880 21 890 22L900 23L900 0L890 0C880 0 860 0 840 0C820 0 800 0 780 0C760 0 740 0 720 0C700 0 680 0 660 0C640 0 620 0 600 0C580 0 560 0 540 0C520 0 500 0 480 0C460 0 440 0 420 0C400 0 380 0 360 0C340 0 320 0 300 0C280 0 260 0 240 0C220 0 200 0 180 0C160 0 140 0 120 0C100 0 80 0 60 0C40 0 20 0 10 0L0 0Z"
        fill="#28587b" />
</svg>