<svg xmlns="http://www.w3.org/2000/svg" xmlns:xlink="http://www.w3.org/1999/xlink" id="visual"
    version="1.1" viewBox="0 488.05 900 112.95">
    <path id="wave2"
        d="M0 555L10 555.7C20 556.3 40 557.7 60 552.2C80 546.7 100 534.3 120 532.8C140 531.3 160 540.7 180 534C200 527.3 220 504.7 240 494.5C260 484.3 280 486.7 300 498.2C320 509.7 340 530.3 360 540C380 549.7 400 548.3 420 550C440 551.7 460 556.3 480 544.3C500 532.3 520 503.7 540 499.3C560 495 580 515 600 524.8C620 534.7 640 534.3 660 524.5C680 514.7 700 495.3 720 499.3C740 503.3 760 530.7 780 537.8C800 545 820 532 840 526.7C860 521.3 880 523.7 890 524.8L900 526L900 601L890 601C880 601 860 601 840 601C820 601 800 601 780 601C760 601 740 601 720 601C700 601 680 601 660 601C640 601 620 601 600 601C580 601 560 601 540 601C520 601 500 601 480 601C460 601 440 601 420 601C400 601 380 601 360 601C340 601 320 601 300 601C280 601 260 601 240 601C220 601 200 601 180 601C160 601 140 601 120 601C100 601 80 601 60 601C40 601 20 601 10 601L0 601Z"
        fill="#57a7dd" />
</svg>