<svg xmlns="http://www.w3.org/2000/svg" xmlns:xlink="http://www.w3.org/1999/xlink" id="visual"
    version="1.1" viewBox="0 0 900 61">
    <path id="wave9"
        d="M0 61L10 59.3C20 57.7 40 54.3 60 52C80 49.7 100 48.3 120 48C140 47.7 160 48.3 180 51.8C200 55.3 220 61.7 240 59.7C260 57.7 280 47.3 300 44C320 40.7 340 44.3 360 46.5C380 48.7 400 49.3 420 48.2C440 47 460 44 480 47C500 50 520 59 540 60.2C560 61.3 580 54.7 600 53C620 51.3 640 54.7 660 56.2C680 57.7 700 57.3 720 55.3C740 53.3 760 49.7 780 51C800 52.3 820 58.7 840 57.3C860 56 880 47 890 42.5L900 38L900 0L890 0C880 0 860 0 840 0C820 0 800 0 780 0C760 0 740 0 720 0C700 0 680 0 660 0C640 0 620 0 600 0C580 0 560 0 540 0C520 0 500 0 480 0C460 0 440 0 420 0C400 0 380 0 360 0C340 0 320 0 300 0C280 0 260 0 240 0C220 0 200 0 180 0C160 0 140 0 120 0C100 0 80 0 60 0C40 0 20 0 10 0L0 0Z"
        fill="#37719a" />
</svg>