<svg xmlns="http://www.w3.org/2000/svg" xmlns:xlink="http://www.w3.org/1999/xlink" id="visual"
    version="1.1" viewBox="0 0 900 142.17">
    <path id="wave6"
        d="M0 109L10 114.2C20 119.3 40 129.7 60 133.3C80 137 100 134 120 130.8C140 127.7 160 124.3 180 124.2C200 124 220 127 240 124.5C260 122 280 114 300 111.2C320 108.3 340 110.7 360 115.8C380 121 400 129 420 135C440 141 460 145 480 139.7C500 134.3 520 119.7 540 111C560 102.3 580 99.7 600 100.8C620 102 640 107 660 114.5C680 122 700 132 720 130.3C740 128.7 760 115.3 780 108.7C800 102 820 102 840 105.5C860 109 880 116 890 119.5L900 123L900 0L890 0C880 0 860 0 840 0C820 0 800 0 780 0C760 0 740 0 720 0C700 0 680 0 660 0C640 0 620 0 600 0C580 0 560 0 540 0C520 0 500 0 480 0C460 0 440 0 420 0C400 0 380 0 360 0C340 0 320 0 300 0C280 0 260 0 240 0C220 0 200 0 180 0C160 0 140 0 120 0C100 0 80 0 60 0C40 0 20 0 10 0L0 0Z"
        fill="#66c3ff" />
</svg>