<svg xmlns="http://www.w3.org/2000/svg" xmlns:xlink="http://www.w3.org/1999/xlink" id="visual"
    version="1.1" viewBox="0 478.97 900 122.03">
    <path id="wave12"
        d="M0 491L10 496.8C20 502.7 40 514.3 60 520C80 525.7 100 525.3 120 520.2C140 515 160 505 180 502.5C200 500 220 505 240 510.3C260 515.7 280 521.3 300 519.5C320 517.7 340 508.3 360 504C380 499.7 400 500.3 420 501.5C440 502.7 460 504.3 480 501.5C500 498.7 520 491.3 540 492.5C560 493.7 580 503.3 600 502C620 500.7 640 488.3 660 482.8C680 477.3 700 478.7 720 481C740 483.3 760 486.7 780 490.7C800 494.7 820 499.3 840 503.2C860 507 880 510 890 511.5L900 513L900 601L890 601C880 601 860 601 840 601C820 601 800 601 780 601C760 601 740 601 720 601C700 601 680 601 660 601C640 601 620 601 600 601C580 601 560 601 540 601C520 601 500 601 480 601C460 601 440 601 420 601C400 601 380 601 360 601C340 601 320 601 300 601C280 601 260 601 240 601C220 601 200 601 180 601C160 601 140 601 120 601C100 601 80 601 60 601C40 601 20 601 10 601L0 601Z"
        fill="#5a53b1" />
</svg>