<svg xmlns="http://www.w3.org/2000/svg" xmlns:xlink="http://www.w3.org/1999/xlink" id="visual"
    version="1.1" viewBox="0 557.36 900 43.64">
    <path id="wave15"
        d="M0 565L10 566.2C20 567.3 40 569.7 60 568.8C80 568 100 564 120 563.5C140 563 160 566 180 566.3C200 566.7 220 564.3 240 565.2C260 566 280 570 300 569.8C320 569.7 340 565.3 360 566C380 566.7 400 572.3 420 574.8C440 577.3 460 576.7 480 577.5C500 578.3 520 580.7 540 578C560 575.3 580 567.7 600 564.3C620 561 640 562 660 561.5C680 561 700 559 720 558C740 557 760 557 780 559.3C800 561.7 820 566.3 840 570.5C860 574.7 880 578.3 890 580.2L900 582L900 601L890 601C880 601 860 601 840 601C820 601 800 601 780 601C760 601 740 601 720 601C700 601 680 601 660 601C640 601 620 601 600 601C580 601 560 601 540 601C520 601 500 601 480 601C460 601 440 601 420 601C400 601 380 601 360 601C340 601 320 601 300 601C280 601 260 601 240 601C220 601 200 601 180 601C160 601 140 601 120 601C100 601 80 601 60 601C40 601 20 601 10 601L0 601Z"
        fill="#3d3879" />
</svg>