<svg xmlns="http://www.w3.org/2000/svg" xmlns:xlink="http://www.w3.org/1999/xlink" id="visual"
    version="1.1" viewBox="0 503.77 900 97.23">
    <path id="wave13"
        d="M0 512L10 516.3C20 520.7 40 529.3 60 530.3C80 531.3 100 524.7 120 518.7C140 512.7 160 507.3 180 508C200 508.7 220 515.3 240 518.8C260 522.3 280 522.7 300 526.5C320 530.3 340 537.7 360 535.8C380 534 400 523 420 523.2C440 523.3 460 534.7 480 533.5C500 532.3 520 518.7 540 511.3C560 504 580 503 600 504.2C620 505.3 640 508.7 660 515.3C680 522 700 532 720 531.3C740 530.7 760 519.3 780 515.5C800 511.7 820 515.3 840 520.3C860 525.3 880 531.7 890 534.8L900 538L900 601L890 601C880 601 860 601 840 601C820 601 800 601 780 601C760 601 740 601 720 601C700 601 680 601 660 601C640 601 620 601 600 601C580 601 560 601 540 601C520 601 500 601 480 601C460 601 440 601 420 601C400 601 380 601 360 601C340 601 320 601 300 601C280 601 260 601 240 601C220 601 200 601 180 601C160 601 140 601 120 601C100 601 80 601 60 601C40 601 20 601 10 601L0 601Z"
        fill="#504a9e" />
</svg>