<svg xmlns="http://www.w3.org/2000/svg" xmlns:xlink="http://www.w3.org/1999/xlink" id="visual"
    version="1.1" viewBox="0 466.26 900 134.74">
    <path id="wave11"
        d="M0 506L10 504.2C20 502.3 40 498.7 60 490.7C80 482.7 100 470.3 120 467.2C140 464 160 470 180 470.5C200 471 220 466 240 468.2C260 470.3 280 479.7 300 481.5C320 483.3 340 477.7 360 480C380 482.3 400 492.7 420 497.2C440 501.7 460 500.3 480 496.3C500 492.3 520 485.7 540 484.2C560 482.7 580 486.3 600 483C620 479.7 640 469.3 660 468.7C680 468 700 477 720 483.2C740 489.3 760 492.7 780 489C800 485.3 820 474.7 840 471.3C860 468 880 472 890 474L900 476L900 601L890 601C880 601 860 601 840 601C820 601 800 601 780 601C760 601 740 601 720 601C700 601 680 601 660 601C640 601 620 601 600 601C580 601 560 601 540 601C520 601 500 601 480 601C460 601 440 601 420 601C400 601 380 601 360 601C340 601 320 601 300 601C280 601 260 601 240 601C220 601 200 601 180 601C160 601 140 601 120 601C100 601 80 601 60 601C40 601 20 601 10 601L0 601Z"
        fill="#655cc5" />
</svg>