<svg xmlns="http://www.w3.org/2000/svg" xmlns:xlink="http://www.w3.org/1999/xlink" id="visual"
    version="1.1" viewBox="0 0 900 142.17">
    <path
        d="M0 109L10 114.2C20 119.3 40 129.7 60 133.3C80 137 100 134 120 130.8C140 127.7 160 124.3 180 124.2C200 124 220 127 240 124.5C260 122 280 114 300 111.2C320 108.3 340 110.7 360 115.8C380 121 400 129 420 135C440 141 460 145 480 139.7C500 134.3 520 119.7 540 111C560 102.3 580 99.7 600 100.8C620 102 640 107 660 114.5C680 122 700 132 720 130.3C740 128.7 760 115.3 780 108.7C800 102 820 102 840 105.5C860 109 880 116 890 119.5L900 123L900 0L890 0C880 0 860 0 840 0C820 0 800 0 780 0C760 0 740 0 720 0C700 0 680 0 660 0C640 0 620 0 600 0C580 0 560 0 540 0C520 0 500 0 480 0C460 0 440 0 420 0C400 0 380 0 360 0C340 0 320 0 300 0C280 0 260 0 240 0C220 0 200 0 180 0C160 0 140 0 120 0C100 0 80 0 60 0C40 0 20 0 10 0L0 0Z"
        fill="#66c3ff" />
    <path
        d="M0 90L10 89.8C20 89.7 40 89.3 60 89.3C80 89.3 100 89.7 120 90C140 90.3 160 90.7 180 91.7C200 92.7 220 94.3 240 92.5C260 90.7 280 85.3 300 88.3C320 91.3 340 102.7 360 106.5C380 110.3 400 106.7 420 100.8C440 95 460 87 480 82.7C500 78.3 520 77.7 540 83.3C560 89 580 101 600 102.8C620 104.7 640 96.3 660 97.5C680 98.7 700 109.3 720 109.8C740 110.3 760 100.7 780 96.2C800 91.7 820 92.3 840 94.3C860 96.3 880 99.7 890 101.3L900 103L900 0L890 0C880 0 860 0 840 0C820 0 800 0 780 0C760 0 740 0 720 0C700 0 680 0 660 0C640 0 620 0 600 0C580 0 560 0 540 0C520 0 500 0 480 0C460 0 440 0 420 0C400 0 380 0 360 0C340 0 320 0 300 0C280 0 260 0 240 0C220 0 200 0 180 0C160 0 140 0 120 0C100 0 80 0 60 0C40 0 20 0 10 0L0 0Z"
        fill="#57a7dd" />
    <path
        d="M0 80L10 77.5C20 75 40 70 60 65.7C80 61.3 100 57.7 120 61.7C140 65.7 160 77.3 180 79.5C200 81.7 220 74.3 240 69C260 63.7 280 60.3 300 58.3C320 56.3 340 55.7 360 56C380 56.3 400 57.7 420 64.3C440 71 460 83 480 88.7C500 94.3 520 93.7 540 90C560 86.3 580 79.7 600 79.7C620 79.7 640 86.3 660 85.5C680 84.7 700 76.3 720 75C740 73.7 760 79.3 780 80.8C800 82.3 820 79.7 840 74.2C860 68.7 880 60.3 890 56.2L900 52L900 0L890 0C880 0 860 0 840 0C820 0 800 0 780 0C760 0 740 0 720 0C700 0 680 0 660 0C640 0 620 0 600 0C580 0 560 0 540 0C520 0 500 0 480 0C460 0 440 0 420 0C400 0 380 0 360 0C340 0 320 0 300 0C280 0 260 0 240 0C220 0 200 0 180 0C160 0 140 0 120 0C100 0 80 0 60 0C40 0 20 0 10 0L0 0Z"
        fill="#478bbb" />
    <path
        d="M0 61L10 59.3C20 57.7 40 54.3 60 52C80 49.7 100 48.3 120 48C140 47.7 160 48.3 180 51.8C200 55.3 220 61.7 240 59.7C260 57.7 280 47.3 300 44C320 40.7 340 44.3 360 46.5C380 48.7 400 49.3 420 48.2C440 47 460 44 480 47C500 50 520 59 540 60.2C560 61.3 580 54.7 600 53C620 51.3 640 54.7 660 56.2C680 57.7 700 57.3 720 55.3C740 53.3 760 49.7 780 51C800 52.3 820 58.7 840 57.3C860 56 880 47 890 42.5L900 38L900 0L890 0C880 0 860 0 840 0C820 0 800 0 780 0C760 0 740 0 720 0C700 0 680 0 660 0C640 0 620 0 600 0C580 0 560 0 540 0C520 0 500 0 480 0C460 0 440 0 420 0C400 0 380 0 360 0C340 0 320 0 300 0C280 0 260 0 240 0C220 0 200 0 180 0C160 0 140 0 120 0C100 0 80 0 60 0C40 0 20 0 10 0L0 0Z"
        fill="#37719a" />
    <path
        d="M0 22L10 23.7C20 25.3 40 28.7 60 28.5C80 28.3 100 24.7 120 24.2C140 23.7 160 26.3 180 30C200 33.7 220 38.3 240 40.3C260 42.3 280 41.7 300 41.7C320 41.7 340 42.3 360 42C380 41.7 400 40.3 420 35.8C440 31.3 460 23.7 480 21.7C500 19.7 520 23.3 540 23.3C560 23.3 580 19.7 600 19.5C620 19.3 640 22.7 660 25.8C680 29 700 32 720 34.5C740 37 760 39 780 36C800 33 820 25 840 22C860 19 880 21 890 22L900 23L900 0L890 0C880 0 860 0 840 0C820 0 800 0 780 0C760 0 740 0 720 0C700 0 680 0 660 0C640 0 620 0 600 0C580 0 560 0 540 0C520 0 500 0 480 0C460 0 440 0 420 0C400 0 380 0 360 0C340 0 320 0 300 0C280 0 260 0 240 0C220 0 200 0 180 0C160 0 140 0 120 0C100 0 80 0 60 0C40 0 20 0 10 0L0 0Z"
        fill="#28587b" />
</svg>