<svg xmlns="http://www.w3.org/2000/svg" xmlns:xlink="http://www.w3.org/1999/xlink" id="visual"
    version="1.1" viewBox="0 466.26 900 134.74">
    <path
        d="M0 506L10 504.2C20 502.3 40 498.7 60 490.7C80 482.7 100 470.3 120 467.2C140 464 160 470 180 470.5C200 471 220 466 240 468.2C260 470.3 280 479.7 300 481.5C320 483.3 340 477.7 360 480C380 482.3 400 492.7 420 497.2C440 501.7 460 500.3 480 496.3C500 492.3 520 485.7 540 484.2C560 482.7 580 486.3 600 483C620 479.7 640 469.3 660 468.7C680 468 700 477 720 483.2C740 489.3 760 492.7 780 489C800 485.3 820 474.7 840 471.3C860 468 880 472 890 474L900 476L900 601L890 601C880 601 860 601 840 601C820 601 800 601 780 601C760 601 740 601 720 601C700 601 680 601 660 601C640 601 620 601 600 601C580 601 560 601 540 601C520 601 500 601 480 601C460 601 440 601 420 601C400 601 380 601 360 601C340 601 320 601 300 601C280 601 260 601 240 601C220 601 200 601 180 601C160 601 140 601 120 601C100 601 80 601 60 601C40 601 20 601 10 601L0 601Z"
        fill="#655cc5" />
    <path
        d="M0 491L10 496.8C20 502.7 40 514.3 60 520C80 525.7 100 525.3 120 520.2C140 515 160 505 180 502.5C200 500 220 505 240 510.3C260 515.7 280 521.3 300 519.5C320 517.7 340 508.3 360 504C380 499.7 400 500.3 420 501.5C440 502.7 460 504.3 480 501.5C500 498.7 520 491.3 540 492.5C560 493.7 580 503.3 600 502C620 500.7 640 488.3 660 482.8C680 477.3 700 478.7 720 481C740 483.3 760 486.7 780 490.7C800 494.7 820 499.3 840 503.2C860 507 880 510 890 511.5L900 513L900 601L890 601C880 601 860 601 840 601C820 601 800 601 780 601C760 601 740 601 720 601C700 601 680 601 660 601C640 601 620 601 600 601C580 601 560 601 540 601C520 601 500 601 480 601C460 601 440 601 420 601C400 601 380 601 360 601C340 601 320 601 300 601C280 601 260 601 240 601C220 601 200 601 180 601C160 601 140 601 120 601C100 601 80 601 60 601C40 601 20 601 10 601L0 601Z"
        fill="#5a53b1" />
    <path
        d="M0 512L10 516.3C20 520.7 40 529.3 60 530.3C80 531.3 100 524.7 120 518.7C140 512.7 160 507.3 180 508C200 508.7 220 515.3 240 518.8C260 522.3 280 522.7 300 526.5C320 530.3 340 537.7 360 535.8C380 534 400 523 420 523.2C440 523.3 460 534.7 480 533.5C500 532.3 520 518.7 540 511.3C560 504 580 503 600 504.2C620 505.3 640 508.7 660 515.3C680 522 700 532 720 531.3C740 530.7 760 519.3 780 515.5C800 511.7 820 515.3 840 520.3C860 525.3 880 531.7 890 534.8L900 538L900 601L890 601C880 601 860 601 840 601C820 601 800 601 780 601C760 601 740 601 720 601C700 601 680 601 660 601C640 601 620 601 600 601C580 601 560 601 540 601C520 601 500 601 480 601C460 601 440 601 420 601C400 601 380 601 360 601C340 601 320 601 300 601C280 601 260 601 240 601C220 601 200 601 180 601C160 601 140 601 120 601C100 601 80 601 60 601C40 601 20 601 10 601L0 601Z"
        fill="#504a9e" />
    <path
        d="M0 554L10 554.5C20 555 40 556 60 557.8C80 559.7 100 562.3 120 560.5C140 558.7 160 552.3 180 547C200 541.7 220 537.3 240 534.3C260 531.3 280 529.7 300 531.8C320 534 340 540 360 545.7C380 551.3 400 556.7 420 555.5C440 554.3 460 546.7 480 541.3C500 536 520 533 540 533.2C560 533.3 580 536.7 600 536.7C620 536.7 640 533.3 660 532.8C680 532.3 700 534.7 720 539C740 543.3 760 549.7 780 553C800 556.3 820 556.7 840 558.2C860 559.7 880 562.3 890 563.7L900 565L900 601L890 601C880 601 860 601 840 601C820 601 800 601 780 601C760 601 740 601 720 601C700 601 680 601 660 601C640 601 620 601 600 601C580 601 560 601 540 601C520 601 500 601 480 601C460 601 440 601 420 601C400 601 380 601 360 601C340 601 320 601 300 601C280 601 260 601 240 601C220 601 200 601 180 601C160 601 140 601 120 601C100 601 80 601 60 601C40 601 20 601 10 601L0 601Z"
        fill="#46418b" />
    <path
        d="M0 565L10 566.2C20 567.3 40 569.7 60 568.8C80 568 100 564 120 563.5C140 563 160 566 180 566.3C200 566.7 220 564.3 240 565.2C260 566 280 570 300 569.8C320 569.7 340 565.3 360 566C380 566.7 400 572.3 420 574.8C440 577.3 460 576.7 480 577.5C500 578.3 520 580.7 540 578C560 575.3 580 567.7 600 564.3C620 561 640 562 660 561.5C680 561 700 559 720 558C740 557 760 557 780 559.3C800 561.7 820 566.3 840 570.5C860 574.7 880 578.3 890 580.2L900 582L900 601L890 601C880 601 860 601 840 601C820 601 800 601 780 601C760 601 740 601 720 601C700 601 680 601 660 601C640 601 620 601 600 601C580 601 560 601 540 601C520 601 500 601 480 601C460 601 440 601 420 601C400 601 380 601 360 601C340 601 320 601 300 601C280 601 260 601 240 601C220 601 200 601 180 601C160 601 140 601 120 601C100 601 80 601 60 601C40 601 20 601 10 601L0 601Z"
        fill="#3d3879" />
</svg>