<svg xmlns="http://www.w3.org/2000/svg" xmlns:xlink="http://www.w3.org/1999/xlink" id="visual" version="1.1" viewBox="0 474.4 900 126.6">
<path d="M0 530L10 525.5C20 521 40 512 60 513C80 514 100 525 120 528.2C140 531.3 160 526.7 180 527.3C200 528 220 534 240 522.3C260 510.7 280 481.3 300 483.2C320 485 340 518 360 526.3C380 534.7 400 518.3 420 516C440 513.7 460 525.3 480 533.2C500 541 520 545 540 531.7C560 518.3 580 487.7 600 478C620 468.3 640 479.7 660 494.3C680 509 700 527 720 526.3C740 525.7 760 506.3 780 503C800 499.7 820 512.3 840 518C860 523.7 880 522.3 890 521.7L900 521L900 601L890 601C880 601 860 601 840 601C820 601 800 601 780 601C760 601 740 601 720 601C700 601 680 601 660 601C640 601 620 601 600 601C580 601 560 601 540 601C520 601 500 601 480 601C460 601 440 601 420 601C400 601 380 601 360 601C340 601 320 601 300 601C280 601 260 601 240 601C220 601 200 601 180 601C160 601 140 601 120 601C100 601 80 601 60 601C40 601 20 601 10 601L0 601Z" fill="#66c3ff"/>
<path d="M0 555L10 555.7C20 556.3 40 557.7 60 552.2C80 546.7 100 534.3 120 532.8C140 531.3 160 540.7 180 534C200 527.3 220 504.7 240 494.5C260 484.3 280 486.7 300 498.2C320 509.7 340 530.3 360 540C380 549.7 400 548.3 420 550C440 551.7 460 556.3 480 544.3C500 532.3 520 503.7 540 499.3C560 495 580 515 600 524.8C620 534.7 640 534.3 660 524.5C680 514.7 700 495.3 720 499.3C740 503.3 760 530.7 780 537.8C800 545 820 532 840 526.7C860 521.3 880 523.7 890 524.8L900 526L900 601L890 601C880 601 860 601 840 601C820 601 800 601 780 601C760 601 740 601 720 601C700 601 680 601 660 601C640 601 620 601 600 601C580 601 560 601 540 601C520 601 500 601 480 601C460 601 440 601 420 601C400 601 380 601 360 601C340 601 320 601 300 601C280 601 260 601 240 601C220 601 200 601 180 601C160 601 140 601 120 601C100 601 80 601 60 601C40 601 20 601 10 601L0 601Z" fill="#57a7dd"/>
<path d="M0 536L10 531.3C20 526.7 40 517.3 60 519.7C80 522 100 536 120 544.3C140 552.7 160 555.3 180 553.5C200 551.7 220 545.3 240 545.2C260 545 280 551 300 552C320 553 340 549 360 545.8C380 542.7 400 540.3 420 543.2C440 546 460 554 480 557C500 560 520 558 540 552.5C560 547 580 538 600 533.8C620 529.7 640 530.3 660 533.2C680 536 700 541 720 546.2C740 551.3 760 556.7 780 548.7C800 540.7 820 519.3 840 519.3C860 519.3 880 540.7 890 551.3L900 562L900 601L890 601C880 601 860 601 840 601C820 601 800 601 780 601C760 601 740 601 720 601C700 601 680 601 660 601C640 601 620 601 600 601C580 601 560 601 540 601C520 601 500 601 480 601C460 601 440 601 420 601C400 601 380 601 360 601C340 601 320 601 300 601C280 601 260 601 240 601C220 601 200 601 180 601C160 601 140 601 120 601C100 601 80 601 60 601C40 601 20 601 10 601L0 601Z" fill="#478bbb"/>
<path d="M0 548L10 548.3C20 548.7 40 549.3 60 549.2C80 549 100 548 120 548.5C140 549 160 551 180 550.3C200 549.7 220 546.3 240 549.5C260 552.7 280 562.3 300 567.7C320 573 340 574 360 568.3C380 562.7 400 550.3 420 545C440 539.7 460 541.3 480 542.7C500 544 520 545 540 546.2C560 547.3 580 548.7 600 550.2C620 551.7 640 553.3 660 551.8C680 550.3 700 545.7 720 541.2C740 536.7 760 532.3 780 536.7C800 541 820 554 840 553.7C860 553.3 880 539.7 890 532.8L900 526L900 601L890 601C880 601 860 601 840 601C820 601 800 601 780 601C760 601 740 601 720 601C700 601 680 601 660 601C640 601 620 601 600 601C580 601 560 601 540 601C520 601 500 601 480 601C460 601 440 601 420 601C400 601 380 601 360 601C340 601 320 601 300 601C280 601 260 601 240 601C220 601 200 601 180 601C160 601 140 601 120 601C100 601 80 601 60 601C40 601 20 601 10 601L0 601Z" fill="#37719a"/>
<path d="M0 548L10 554.8C20 561.7 40 575.3 60 582C80 588.7 100 588.3 120 584.2C140 580 160 572 180 570.7C200 569.3 220 574.7 240 577.8C260 581 280 582 300 581.8C320 581.7 340 580.3 360 580C380 579.7 400 580.3 420 575.5C440 570.7 460 560.3 480 555.5C500 550.7 520 551.3 540 553C560 554.7 580 557.3 600 563.7C620 570 640 580 660 580.7C680 581.3 700 572.7 720 566.5C740 560.3 760 556.7 780 557C800 557.3 820 561.7 840 564.3C860 567 880 568 890 568.5L900 569L900 601L890 601C880 601 860 601 840 601C820 601 800 601 780 601C760 601 740 601 720 601C700 601 680 601 660 601C640 601 620 601 600 601C580 601 560 601 540 601C520 601 500 601 480 601C460 601 440 601 420 601C400 601 380 601 360 601C340 601 320 601 300 601C280 601 260 601 240 601C220 601 200 601 180 601C160 601 140 601 120 601C100 601 80 601 60 601C40 601 20 601 10 601L0 601Z" fill="#28587b"/>
</svg>